# xmcd
#
# Track frame offsets:
# 150
# 16810
# 37252
# 53507
# 69940
# 91389
# 111037
# 126222
# 142271
# 160360
# 174524
#
# Disc length: 2518 seconds
#
# Revision: 0
# Processed by: cddbd v1.5.2PL0 Copyright (c) Steve Scherf et al.
# Submitted via: Axialis_AX_CDPlayer 2.6
#
DISCID=9309d40b
DTITLE=Toby Keith - That Don't Make Me A Bad Guy
DYEAR=1900
DGENRE=
TTITLE0=That Don't Make Me A Bad Guy
TTITLE1=Creole Woman
TTITLE2=God Love Her
TTITLE3=Lost You Anyway
TTITLE4=Missing Me Some You
TTITLE5=Hurt A Lot Worse When You Go
TTITLE6=Time That It Would Take
TTITLE7=You Already Love Me
TTITLE8=She Never Cried In Front Of Me
TTITLE9=Cabo San Lucas
TTITLE10=I Got It For You Girl
EXTD=www.tobykeith.com
EXTT0=
EXTT1=
EXTT2=
EXTT3=
EXTT4=
EXTT5=
EXTT6=
EXTT7=
EXTT8=
EXTT9=
EXTT10=
PLAYORDER=
